<?xml version="1.0" encoding="UTF-8"?>
<svg id="Layer_2" data-name="Layer 2" xmlns="http://www.w3.org/2000/svg" viewBox="0 0 157.5 157.5">
  <defs>
    <style>
      .cls-1 {
        fill: #fff;
        stroke-width: 0px;
      }
    </style>
  </defs>
  <g id="Layer_1-2" data-name="Layer 1">
    <path class="cls-1" d="m78.75,0C35.26,0,0,35.26,0,78.75s35.26,78.75,78.75,78.75,78.75-35.26,78.75-78.75S122.24,0,78.75,0Zm3.92,116.93l.04,5.57c0,.77-.63,1.42-1.41,1.42h-4.99c-.77,0-1.41-.63-1.41-1.41v-5.52c-15.61-1.16-22.96-10.05-23.75-19.72-.07-.83.58-1.53,1.41-1.53h8.12c.69,0,1.28.49,1.39,1.16.9,5.57,5.24,9.74,13.03,10.78v-25.08l-4.34-1.11c-9.19-2.2-17.95-7.93-17.95-19.81,0-12.81,9.74-19.71,22.18-20.92v-5.8c0-.77.63-1.41,1.41-1.41h4.94c.77,0,1.41.63,1.41,1.41v5.75c12.04,1.21,21.08,8.24,22.13,19.2.09.83-.56,1.55-1.41,1.55h-7.89c-.7,0-1.3-.53-1.39-1.21-.7-5.13-4.82-9.32-11.51-10.23v23.61l4.46,1.04c11.39,2.81,19.14,8.26,19.14,20.46,0,13.24-9.84,20.62-23.61,21.81Zm-18.93-56.06c0,4.46,2.76,7.93,8.7,10.07.83.33,1.65.6,2.64.88v-21.8c-6.49.83-11.34,4.46-11.34,10.85Zm20.48,23.77c-.49-.11-.98-.23-1.55-.39v23.5c7.49-.67,12.66-4.78,12.66-11.67,0-5.4-2.79-8.91-11.11-11.44Z"/>
  </g>
</svg>