<?xml version="1.0" encoding="UTF-8"?>
<svg id="Layer_2" data-name="Layer 2" xmlns="http://www.w3.org/2000/svg" viewBox="0 0 174.23 174.23">
  <defs>
    <style>
      .cls-1 {
        fill: #fff;
        stroke-width: 0px;
      }
    </style>
  </defs>
  <g id="Layer_1-2" data-name="Layer 1">
    <path class="cls-1" d="m87.12,0C39.01,0,0,39.01,0,87.12s39.01,87.12,87.12,87.12,87.12-39.01,87.12-87.12S135.23,0,87.12,0Zm12.35,73.08c.86,0,1.56.7,1.56,1.56v5.29c0,.86-.7,1.56-1.56,1.56h-26.45c-.06.86-.06,1.77-.06,2.68v7h26.49c.86,0,1.56.7,1.56,1.56v5.29c0,.86-.7,1.56-1.56,1.56h-25.38c2.98,12.06,11.92,19.17,25.24,19.17,3.87,0,7.21-.23,10.07-.8.95-.19,1.85.54,1.85,1.52v8.32c0,.74-.53,1.36-1.24,1.52-3.09.66-6.67.99-10.75.99-21.35,0-35.59-11.43-38.93-30.72h-5.85c-.86,0-1.56-.7-1.56-1.56v-5.29c0-.86.7-1.56,1.56-1.56h5.08v-7.18c0-.86,0-1.71.06-2.49h-5.13c-.86,0-1.56-.7-1.56-1.56v-5.29c0-.86.7-1.56,1.56-1.56h6.16c3.83-18.32,17.89-29.15,38.62-29.15,4.06,0,7.66.37,10.75,1.05.72.16,1.23.78,1.23,1.52v8.32h.02c0,.99-.89,1.71-1.87,1.52-2.86-.56-6.18-.86-10.05-.86-12.72,0-21.47,6.51-24.81,17.58h24.97Z"/>
  </g>
</svg>