<?xml version="1.0" encoding="UTF-8"?>
<svg id="Layer_2" data-name="Layer 2" xmlns="http://www.w3.org/2000/svg" viewBox="0 0 111.1 111.14">
  <defs>
    <style>
      .cls-1 {
        fill: #fff;
        stroke-width: 0px;
      }
    </style>
  </defs>
  <g id="Layer_1-2" data-name="Layer 1">
    <path class="cls-1" d="m111.1,31.76c-9.33-.51-18.58,1.91-26.46,6.93-1.91-2.17-3.86-4.34-5.93-6.4l-1.53-1.43.74-.64c5.3-4.55,7.2-11.92,4.76-18.47C79.17,4.38,71.64-.22,63.47,0v10.58c3.83-.05,7.4,1.97,9.31,5.29.9,2.12,0,4.45-2.49,6.93l-1.22,1.11c-5.52-4.6-11.58-8.51-18.05-11.64-13.39-6.03-20.27-3.23-23.66,0-1.03,1.03-1.86,2.26-2.43,3.6l-.95,2.8-7.62,22.97c6.03,15.03,20.64,41.76,52.39,53.29l26.46-8.79c.89-.33,1.68-.9,2.28-1.64l1.11-.95c7.57-7.62,2.7-22.28-7.46-36.52,6.03-3.52,12.98-5.16,19.95-4.71v-10.58Zm-20.06,44.3h-.32c-3.65,1.96-18.79-3.02-35.93-20.16-1.8-1.8-3.49-3.55-5.03-5.29-.53-.58-1.01-1.22-1.53-1.85l-2.8-3.39-1.48-2.06c-.74-1.01-1.48-2.01-2.12-2.96s-.85-1.38-1.27-2.06-1.16-1.8-1.64-2.7-.69-1.27-1.01-1.96-.9-1.48-1.22-2.22-.48-1.22-.74-1.8-.58-1.43-.79-2.12-.26-1.01-.37-1.53-.32-1.27-.42-1.8c-.03-.42-.03-.85,0-1.27-.05-.46-.05-.92,0-1.38l.58-1.64c.9-.95,4.82-1.22,11.8,1.96,4.67,2.24,9.09,4.97,13.18,8.15-2.23.98-4.61,1.59-7.04,1.8v10.58c5.62-.32,11.08-2.03,15.88-4.97l2.59,2.43c2.33,2.28,4.39,4.55,6.3,6.72-3.19,5.44-4.46,11.8-3.6,18.05l10.58-2.06c-.36-2-.36-4.04,0-6.03,6.83,10.43,8.1,17.94,6.4,19.58ZM12.67,52.93L.87,88.39c-2.98,9.11,1.99,18.91,11.1,21.9,1.73.57,3.54.86,5.36.86,1.8-.02,3.59-.32,5.29-.9l34.51-11.48c-19.47-9.95-35.11-26.06-44.45-45.83Z"/>
  </g>
</svg>