<?xml version="1.0" encoding="UTF-8"?>
<svg id="Layer_2" data-name="Layer 2" xmlns="http://www.w3.org/2000/svg" viewBox="0 0 127.12 111.23">
  <defs>
    <style>
      .cls-1 {
        fill: #fff;
        stroke-width: 0px;
      }
    </style>
  </defs>
  <g id="Layer_1-2" data-name="Layer 1">
    <path class="cls-1" d="m0,39.73c0-8.76,7.13-15.89,15.89-15.89h.4c1.84-9.06,9.86-15.89,19.47-15.89,3.72,0,7.2,1.02,10.16,2.78C49.21,4.37,55.89,0,63.56,0s14.35,4.37,17.65,10.73c2.95-1.76,6.43-2.78,10.16-2.78,9.61,0,17.63,6.83,19.47,15.89h.4c8.76,0,15.89,7.13,15.89,15.89,0,2.91-.77,5.61-2.14,7.95H2.14c-1.37-2.33-2.14-5.04-2.14-7.95Zm0,22.69c0-3.75,3.05-6.8,6.8-6.8h113.52c3.75,0,6.8,3.05,6.8,6.8,0,17.5-11.02,32.45-26.49,38.26l-.45,3.6c-.5,3.97-3.87,6.95-7.9,6.95h-57.48c-4,0-7.4-2.98-7.9-6.95l-.45-3.58C11.02,94.87,0,79.92,0,62.42Z"/>
  </g>
</svg>