<?xml version="1.0" encoding="UTF-8"?>
<svg id="Layer_2" data-name="Layer 2" xmlns="http://www.w3.org/2000/svg" viewBox="0 0 300.23 343.12">
  <defs>
    <style>
      .cls-1 {
        fill: #fff;
        stroke-width: 0px;
      }
    </style>
  </defs>
  <g id="Layer_1-2" data-name="Layer 1">
    <path class="cls-1" d="m300.23,241.26V16.08c0-8.91-7.17-16.08-16.08-16.08H64.34C28.82,0,0,28.82,0,64.34v214.45c0,35.52,28.82,64.34,64.34,64.34h219.81c8.91,0,16.08-7.17,16.08-16.08v-10.72c0-5.03-2.35-9.58-5.96-12.53-2.81-10.32-2.81-39.74,0-50.06,3.62-2.88,5.96-7.44,5.96-12.47ZM85.78,89.8c0-2.21,1.81-4.02,4.02-4.02h142.08c2.21,0,4.02,1.81,4.02,4.02v13.4c0,2.21-1.81,4.02-4.02,4.02H89.8c-2.21,0-4.02-1.81-4.02-4.02v-13.4Zm0,42.89c0-2.21,1.81-4.02,4.02-4.02h142.08c2.21,0,4.02,1.81,4.02,4.02v13.4c0,2.21-1.81,4.02-4.02,4.02H89.8c-2.21,0-4.02-1.81-4.02-4.02v-13.4Zm169.82,167.54H64.34c-11.86,0-21.45-9.58-21.45-21.45s9.65-21.45,21.45-21.45h191.27c-1.27,11.46-1.27,31.43,0,42.89Z"/>
  </g>
</svg>