<?xml version="1.0" encoding="UTF-8"?>
<svg id="Layer_2" data-name="Layer 2" xmlns="http://www.w3.org/2000/svg" viewBox="0 0 163.41 186.75">
  <defs>
    <style>
      .cls-1 {
        fill: #fff;
        stroke-width: 0px;
      }
    </style>
  </defs>
  <g id="Layer_1-2" data-name="Layer 1">
    <path class="cls-1" d="m81.7,0c45.52,0,81.7,12.84,81.7,29.18v122.55c0,6.46-5.22,11.67-11.67,11.67v11.67c0,6.46-5.22,11.67-11.67,11.67h-11.67c-6.46,0-11.67-5.22-11.67-11.67v-11.67H46.69v11.67c0,6.46-5.22,11.67-11.67,11.67h-11.67c-6.46,0-11.67-5.22-11.67-11.67v-11.67c-6.46,0-11.67-5.22-11.67-11.67V29.18C0,12.84,36.18,0,81.7,0ZM23.34,46.69v46.69c0,6.46,5.22,11.67,11.67,11.67h93.38c6.46,0,11.67-5.22,11.67-11.67v-46.69c0-6.46-5.22-11.67-11.67-11.67H35.02c-6.46,0-11.67,5.22-11.67,11.67Zm5.84,99.21c6.45,0,11.67-5.23,11.67-11.67s-5.23-11.67-11.67-11.67-11.67,5.23-11.67,11.67,5.23,11.67,11.67,11.67Zm105.05,0c6.45,0,11.67-5.23,11.67-11.67s-5.23-11.67-11.67-11.67-11.67,5.23-11.67,11.67,5.23,11.67,11.67,11.67Z"/>
  </g>
</svg>