<?xml version="1.0" encoding="UTF-8"?>
<svg id="Layer_2" data-name="Layer 2" xmlns="http://www.w3.org/2000/svg" viewBox="0 0 246.58 221.06">
  <defs>
    <style>
      .cls-1 {
        fill: #fff;
        stroke-width: 0px;
      }
    </style>
  </defs>
  <g id="Layer_1-2" data-name="Layer 1">
    <path class="cls-1" d="m0,10.36C0,4.62,4.62,0,10.36,0h19.64c9.5,0,17.92,5.53,21.85,13.82h177.45c11.36,0,19.64,10.79,16.67,21.76l-17.7,65.76c-3.67,13.56-15.97,23.01-30.01,23.01h-124.56l2.33,12.3c.95,4.88,5.22,8.42,10.19,8.42h124.47c5.74,0,10.36,4.62,10.36,10.36s-4.62,10.36-10.36,10.36h-124.47c-14.94,0-27.76-10.62-30.52-25.26L33.42,23.53c-.3-1.64-1.73-2.81-3.41-2.81H10.36C4.62,20.72,0,16.1,0,10.36Zm55.26,189.97c0-11.45,9.28-20.72,20.72-20.72s20.72,9.28,20.72,20.72-9.28,20.72-20.72,20.72-20.72-9.28-20.72-20.72h0Zm145.07-20.72c11.45,0,20.72,9.28,20.72,20.72s-9.28,20.72-20.72,20.72h0c-11.45,0-20.72-9.28-20.72-20.72s9.28-20.72,20.72-20.72Z"/>
  </g>
</svg>