<?xml version="1.0" encoding="UTF-8"?>
<svg id="Layer_2" data-name="Layer 2" xmlns="http://www.w3.org/2000/svg" viewBox="0 0 124.3 124.31">
  <defs>
    <style>
      .cls-1 {
        fill: #fff;
        stroke-width: 0px;
      }
    </style>
  </defs>
  <g id="Layer_1-2" data-name="Layer 1">
    <path class="cls-1" d="m69.91,46.62h4.15c5.37,9.3,15.42,15.54,26.93,15.54,2.67,0,5.29-.34,7.77-.97v55.36c0,4.3-3.47,7.77-7.77,7.77s-7.77-3.47-7.77-7.77v-34.19l-33.02,26.42h13.6c4.3,0,7.77,3.47,7.77,7.77s-3.47,7.77-7.77,7.77h-34.96c-12.87,0-23.31-10.44-23.31-23.31v-54.27c0-3.91-2.91-7.24-6.8-7.72l-1.92-.24C2.56,38.24-.47,34.36.06,30.11s4.42-7.28,8.67-6.75l1.92.24c11.65,1.46,20.42,11.36,20.42,23.14v20.71c8.35-12.55,22.63-20.83,38.85-20.83Zm38.85,6.43h0c-2.43.85-5.05,1.34-7.77,1.34-6.9,0-13.11-3.01-17.38-7.77h0c-.9-1-1.7-2.06-2.4-3.2-2.23-3.59-3.52-7.82-3.52-12.33h0V2.6c0-1.43,1.14-2.57,2.57-2.6h.05c.8,0,1.55.39,2.04,1.02v.02l3.11,4.13,6.6,8.81,1.17,1.55h15.54l1.17-1.55,6.6-8.81,3.11-4.13v-.02C120.13.39,120.88,0,121.68,0h.05c1.43.02,2.57,1.17,2.57,2.6v28.48c0,4.2-1.12,8.16-3.06,11.56-2.74,4.81-7.19,8.55-12.48,10.42Zm-11.65-21.97c0-2.15-1.74-3.88-3.88-3.88s-3.88,1.74-3.88,3.88,1.74,3.88,3.88,3.88,3.88-1.74,3.88-3.88Zm11.65,3.88c2.15,0,3.88-1.74,3.88-3.88s-1.74-3.88-3.88-3.88-3.88,1.74-3.88,3.88,1.74,3.88,3.88,3.88Z"/>
  </g>
</svg>