<?xml version="1.0" encoding="UTF-8"?>
<svg id="Layer_2" data-name="Layer 2" xmlns="http://www.w3.org/2000/svg" viewBox="0 0 237.38 207.7">
  <defs>
    <style>
      .cls-1 {
        fill: #fff;
        stroke-width: 0px;
      }
    </style>
  </defs>
  <g id="Layer_1-2" data-name="Layer 1">
    <path class="cls-1" d="m62.68,39.59l-12.1,34.59h136.21l-12.1-34.59c-2.09-5.93-7.7-9.92-14-9.92h-84.01c-6.31,0-11.92,3.99-14,9.92Zm-44.32,36.81l16.32-46.59C40.94,11.96,57.77,0,76.68,0h84.01c18.92,0,35.75,11.96,42,29.81l16.32,46.59c10.76,4.45,18.36,15.07,18.36,27.45v89.02c0,8.21-6.63,14.84-14.84,14.84h-14.84c-8.21,0-14.84-6.63-14.84-14.84v-22.25H44.51v22.25c0,8.21-6.63,14.84-14.84,14.84h-14.84c-8.21,0-14.84-6.63-14.84-14.84v-89.02c0-12.38,7.6-23,18.36-27.45Zm40.98,42.28c0-8.19-6.64-14.84-14.84-14.84s-14.84,6.64-14.84,14.84,6.64,14.84,14.84,14.84,14.84-6.64,14.84-14.84Zm133.52,14.84c8.19,0,14.84-6.64,14.84-14.84s-6.64-14.84-14.84-14.84-14.84,6.64-14.84,14.84,6.64,14.84,14.84,14.84Z"/>
  </g>
</svg>