<?xml version="1.0" encoding="UTF-8"?>
<svg id="Layer_2" data-name="Layer 2" xmlns="http://www.w3.org/2000/svg" viewBox="0 0 239.62 209.67">
  <defs>
    <style>
      .cls-1 {
        fill: #fff;
        stroke-width: 0px;
      }
    </style>
  </defs>
  <g id="Layer_1-2" data-name="Layer 1">
    <path class="cls-1" d="m29.95,14.98C29.95,6.69,23.26,0,14.98,0S0,6.69,0,14.98v157.25c0,20.69,16.76,37.44,37.44,37.44h187.21c8.28,0,14.98-6.69,14.98-14.98s-6.69-14.98-14.98-14.98H37.44c-4.12,0-7.49-3.37-7.49-7.49V14.98Zm190.3,40.53c5.85-5.85,5.85-15.35,0-21.2s-15.35-5.85-21.2,0l-49.28,49.33-26.86-26.86c-5.85-5.85-15.35-5.85-21.2,0l-52.42,52.42c-5.85,5.85-5.85,15.35,0,21.2s15.35,5.85,21.2,0l41.84-41.79,26.86,26.86c5.85,5.85,15.35,5.85,21.2,0l59.91-59.91-.05-.05Z"/>
  </g>
</svg>