<?xml version="1.0" encoding="UTF-8"?>
<svg id="Layer_2" data-name="Layer 2" xmlns="http://www.w3.org/2000/svg" viewBox="0 0 204.74 182">
  <defs>
    <style>
      .cls-1 {
        fill: #fff;
        stroke-width: 0px;
      }
    </style>
  </defs>
  <g id="Layer_1-2" data-name="Layer 1">
    <path class="cls-1" d="m110.04,56.34l8.21-49.3c.68-4.05,4.19-7.04,8.32-7.04,2.67,0,5.15,1.24,6.75,3.38l6.01,8h18.52c4.51,0,8.85,1.81,12.05,5.01l6.4,6.36h19.91c4.73,0,8.53,3.8,8.53,8.53v8.53c0,15.71-12.73,28.44-28.44,28.44h-24.63l-1.81,10.84-39.81-22.75Zm37.82,34.69v79.59c0,6.29-5.08,11.38-11.38,11.38h-11.38c-6.29,0-11.38-5.08-11.38-11.38v-40.95c-8.53,4.37-18.2,6.83-28.44,6.83s-19.91-2.45-28.44-6.83v40.95c0,6.29-5.08,11.38-11.38,11.38h-11.38c-6.29,0-11.38-5.08-11.38-11.38v-81.83c-10.24-3.87-18.27-12.55-21.04-23.64l-1.35-5.51c-1.53-6.08,2.17-12.26,8.28-13.79,6.11-1.53,12.26,2.17,13.79,8.28l1.39,5.51c1.24,5.05,5.79,8.6,11.02,8.6h73.16l39.88,22.79Zm17.06-62.6c0-3.14-2.55-5.69-5.69-5.69s-5.69,2.55-5.69,5.69,2.55,5.69,5.69,5.69,5.69-2.55,5.69-5.69Z"/>
  </g>
</svg>