<?xml version="1.0" encoding="UTF-8"?>
<svg id="Layer_2" data-name="Layer 2" xmlns="http://www.w3.org/2000/svg" viewBox="0 0 171.38 133.29">
  <defs>
    <style>
      .cls-1 {
        fill: #fff;
        stroke-width: 0px;
      }
    </style>
  </defs>
  <g id="Layer_1-2" data-name="Layer 1">
    <path class="cls-1" d="m0,14.28v104.73c0,7.88,6.4,14.28,14.28,14.28h14.28V0h-14.28C6.4,0,0,6.4,0,14.28Zm38.08,119.01h95.21V0H38.08v133.29Zm19.04-73.79c0-1.31,1.07-2.38,2.38-2.38h16.66v-16.66c0-1.31,1.07-2.38,2.38-2.38h14.28c1.31,0,2.38,1.07,2.38,2.38v16.66h16.66c1.31,0,2.38,1.07,2.38,2.38v14.28c0,1.31-1.07,2.38-2.38,2.38h-16.66v16.66c0,1.31-1.07,2.38-2.38,2.38h-14.28c-1.31,0-2.38-1.07-2.38-2.38v-16.66h-16.66c-1.31,0-2.38-1.07-2.38-2.38v-14.28ZM157.09,0h-14.28v133.29h14.28c7.88,0,14.28-6.4,14.28-14.28V14.28c0-7.88-6.4-14.28-14.28-14.28Z"/>
  </g>
</svg>