<?xml version="1.0" encoding="UTF-8"?>
<svg id="Layer_2" data-name="Layer 2" xmlns="http://www.w3.org/2000/svg" viewBox="0 0 169.89 118.94">
  <defs>
    <style>
      .cls-1 {
        fill: #fff;
        stroke-width: 0px;
      }
    </style>
  </defs>
  <g id="Layer_1-2" data-name="Layer 1">
    <path class="cls-1" d="m84.94,0c-2.15,0-4.27.37-6.29,1.09L4.2,27.98C1.68,28.91,0,31.3,0,33.98s1.67,5.07,4.19,6l15.37,5.55c-4.35,6.85-6.82,14.94-6.82,23.46v7.46c0,7.54-2.87,15.32-5.92,21.45-1.73,3.45-3.69,6.85-5.97,9.98-.85,1.14-1.09,2.63-.61,3.98.48,1.35,1.59,2.36,2.97,2.71l16.99,4.25c1.11.29,2.31.08,3.29-.53s1.67-1.62,1.88-2.76c2.28-11.36,1.14-21.55-.56-28.85-.85-3.77-1.99-7.62-3.58-11.15v-6.53c0-8.02,2.71-15.58,7.41-21.63,3.42-4.11,7.86-7.43,13.06-9.48l41.67-16.38c2.18-.85,4.65.21,5.49,2.39.85,2.18-.21,4.65-2.39,5.49l-41.67,16.38c-3.29,1.3-6.18,3.29-8.55,5.73l42.36,15.29c2.02.72,4.14,1.09,6.29,1.09s4.27-.37,6.29-1.09l74.48-26.81c2.52-.9,4.19-3.32,4.19-6s-1.67-5.07-4.19-6L91.24,1.09c-2.02-.72-4.14-1.09-6.29-1.09Zm-50.96,99.81c0,9.37,22.83,19.11,50.96,19.11s50.96-9.74,50.96-19.11l-4.06-38.59-37.75,13.64c-2.95,1.06-6.05,1.59-9.16,1.59s-6.24-.53-9.16-1.59l-37.75-13.64-4.06,38.59Z"/>
  </g>
</svg>