<?xml version="1.0" encoding="UTF-8"?>
<svg id="Layer_2" data-name="Layer 2" xmlns="http://www.w3.org/2000/svg" viewBox="0 0 241.08 226.97">
  <defs>
    <style>
      .cls-1 {
        fill: #fff;
        stroke-width: 0px;
      }
    </style>
  </defs>
  <g id="Layer_1-2" data-name="Layer 1">
    <path class="cls-1" d="m136.22,162.74c12.1-1.73,23.01-8.6,29.79-19.02l71.68-110.86c5.59-8.64,4.17-20.08-3.37-27.13-7.54-7.05-19.02-7.67-27.26-1.46l-104.92,78.72c-10.64,7.98-16.93,20.43-17.02,33.73l51.11,46.01Zm-8.69,11.26l-51.42-46.28c-26.51.98-47.74,22.83-47.74,49.6,0,1.73.09,3.46.27,5.14.8,7.76-4.52,16.14-12.32,16.14h-2.13c-7.85,0-14.18,6.34-14.18,14.18s6.34,14.18,14.18,14.18h63.83c27.44,0,49.65-22.21,49.65-49.65,0-1.11-.04-2.22-.09-3.32h-.04Z"/>
  </g>
</svg>