<?xml version="1.0" encoding="UTF-8"?>
<svg id="Layer_2" data-name="Layer 2" xmlns="http://www.w3.org/2000/svg" viewBox="0 0 244.5 244.5">
  <defs>
    <style>
      .cls-1 {
        fill: #fff;
        stroke-width: 0px;
      }
    </style>
  </defs>
  <g id="Layer_1-2" data-name="Layer 1">
    <path class="cls-1" d="m244.5,122.25v1.29c-.19,17.43-16.05,29.27-33.48,29.27h-46.75c-12.65,0-22.92,10.27-22.92,22.92,0,1.62.19,3.2.48,4.73,1,4.87,3.1,9.55,5.16,14.28,2.91,6.59,5.78,13.13,5.78,20.06,0,15.19-10.31,28.99-25.5,29.61-1.67.05-3.34.1-5.06.1C54.73,244.5,0,189.77,0,122.25S54.73,0,122.25,0s122.25,54.73,122.25,122.25Zm-183.38,15.28c0-8.44-6.84-15.28-15.28-15.28s-15.28,6.84-15.28,15.28,6.84,15.28,15.28,15.28,15.28-6.84,15.28-15.28Zm0-45.84c8.44,0,15.28-6.84,15.28-15.28s-6.84-15.28-15.28-15.28-15.28,6.84-15.28,15.28,6.84,15.28,15.28,15.28Zm76.41-45.84c0-8.44-6.84-15.28-15.28-15.28s-15.28,6.84-15.28,15.28,6.84,15.28,15.28,15.28,15.28-6.84,15.28-15.28Zm45.84,45.84c8.44,0,15.28-6.84,15.28-15.28s-6.84-15.28-15.28-15.28-15.28,6.84-15.28,15.28,6.84,15.28,15.28,15.28Z"/>
  </g>
</svg>