<?xml version="1.0" encoding="UTF-8"?>
<svg id="Layer_2" data-name="Layer 2" xmlns="http://www.w3.org/2000/svg" viewBox="0 0 263.25 234">
  <defs>
    <style>
      .cls-1 {
        fill: #fff;
        stroke-width: 0px;
      }
    </style>
  </defs>
  <g id="Layer_1-2" data-name="Layer 1">
    <path class="cls-1" d="m219.37,87.75h-52.23L119.11,3.68C117.8,1.41,115.38,0,112.75,0h-29.94C77.96,0,74.45,4.65,75.79,9.32l22.41,78.43h-47.01l-19.74-26.33c-1.38-1.84-3.55-2.93-5.85-2.93H7.32c-4.76,0-8.25,4.47-7.09,9.09l14.4,49.41L.22,166.41c-1.16,4.62,2.34,9.09,7.09,9.09h18.28c2.3,0,4.47-1.08,5.85-2.92l19.74-26.33h47.01l-22.41,78.43c-1.33,4.67,2.17,9.32,7.03,9.32h29.94c2.62,0,5.05-1.41,6.35-3.68l48.04-84.07h52.23c16.16,0,43.88-13.09,43.88-29.25s-27.72-29.25-43.88-29.25Z"/>
  </g>
</svg>