<?xml version="1.0" encoding="UTF-8"?>
<svg id="Layer_2" data-name="Layer 2" xmlns="http://www.w3.org/2000/svg" viewBox="0 0 355.51 284.4">
  <defs>
    <style>
      .cls-1 {
        fill: #fff;
        stroke-width: 0px;
      }
    </style>
  </defs>
  <g id="Layer_1-2" data-name="Layer 1">
    <path class="cls-1" d="m117.65,0c4.33,0,7.94,3.17,9.28,7.33,6.83,21.5,27,37.11,50.83,37.11s43.99-15.61,50.83-37.11c1.33-4.17,4.94-7.33,9.28-7.33h7c12.5,0,24.55,4.39,34.16,12.39l70.1,58.38c3.67,3.06,5.94,7.5,6.33,12.28.39,4.78-1.17,9.5-4.33,13.11l-31.11,35.55c-6.33,7.28-17.33,8.11-24.77,1.94l-28.61-23.83v139.03c0,19.61-15.94,35.55-35.55,35.55h-106.65c-19.61,0-35.55-15.94-35.55-35.55V109.82l-28.61,23.83c-7.39,6.17-18.39,5.33-24.77-1.94L4.39,96.15C1.23,92.54-.33,87.82.06,83.04s2.67-9.22,6.33-12.28L76.49,12.39C86.1,4.39,98.15,0,110.65,0h7Z"/>
  </g>
</svg>