<?xml version="1.0" encoding="UTF-8"?>
<svg id="Layer_2" data-name="Layer 2" xmlns="http://www.w3.org/2000/svg" viewBox="0 0 321.75 214.5">
  <defs>
    <style>
      .cls-1 {
        fill: #fff;
        stroke-width: 0px;
      }
    </style>
  </defs>
  <g id="Layer_1-2" data-name="Layer 1">
    <path class="cls-1" d="m35.75,0C16.03,0,0,16.03,0,35.75v35.75c0,4.92,4.13,8.77,8.77,10.39,10.5,3.63,18.04,13.63,18.04,25.36s-7.54,21.73-18.04,25.36c-4.64,1.62-8.77,5.47-8.77,10.39v35.75c0,19.72,16.03,35.75,35.75,35.75h250.25c19.72,0,35.75-16.03,35.75-35.75v-35.75c0-4.92-4.13-8.77-8.77-10.39-10.5-3.63-18.04-13.63-18.04-25.36s7.54-21.73,18.04-25.36c4.64-1.62,8.77-5.47,8.77-10.39v-35.75c0-19.72-16.03-35.75-35.75-35.75H35.75Zm35.75,62.56v89.38c0,4.92,4.02,8.94,8.94,8.94h160.88c4.92,0,8.94-4.02,8.94-8.94V62.56c0-4.92-4.02-8.94-8.94-8.94H80.44c-4.92,0-8.94,4.02-8.94,8.94Zm-17.88-8.94c0-9.89,7.99-17.88,17.88-17.88h178.75c9.89,0,17.88,7.99,17.88,17.88v107.25c0,9.89-7.99,17.88-17.88,17.88H71.5c-9.89,0-17.88-7.99-17.88-17.88V53.63Z"/>
  </g>
</svg>