<?xml version="1.0" encoding="UTF-8"?>
<svg id="Layer_2" data-name="Layer 2" xmlns="http://www.w3.org/2000/svg" viewBox="0 0 249.75 249.76">
  <defs>
    <style>
      .cls-1 {
        fill: #fff;
        stroke-width: 0px;
      }
    </style>
  </defs>
  <g id="Layer_1-2" data-name="Layer 1">
    <path class="cls-1" d="m244.44,193.01l-57.12-57.12c-11.27-11.27-28.1-13.46-41.65-6.78l-52-52v-30.29L31.24,0,.02,31.22l46.83,62.43h30.29l52,52c-6.63,13.56-4.49,30.39,6.78,41.65l57.12,57.12c7.12,7.12,18.63,7.12,25.71,0l25.71-25.71c7.07-7.12,7.07-18.63,0-25.71Zm-82.63-83.26c13.8,0,26.78,5.37,36.53,15.12l9.46,9.46c7.71-3.37,15.02-8.05,21.36-14.39,18.1-18.1,24.24-43.56,18.49-66.68-1.07-4.39-6.58-5.9-9.8-2.68l-36.29,36.29-33.12-5.51-5.51-33.12,36.29-36.29c3.22-3.22,1.66-8.73-2.78-9.85-23.12-5.71-48.58.44-66.63,18.49-13.9,13.9-20.44,32.24-20.1,50.53l40.05,40.05c3.95-.93,8.05-1.41,12.05-1.41Zm-50.68,40l-27.66-27.66L9.15,196.47c-12.19,12.19-12.19,31.95,0,44.14s31.95,12.19,44.14,0l60.29-60.29c-3.71-9.71-4.83-20.29-2.44-30.58ZM31.24,230.22c-6.44,0-11.71-5.27-11.71-11.71s5.22-11.71,11.71-11.71,11.71,5.22,11.71,11.71-5.22,11.71-11.71,11.71Z"/>
  </g>
</svg>