<?xml version="1.0" encoding="UTF-8"?>
<svg id="Layer_2" data-name="Layer 2" xmlns="http://www.w3.org/2000/svg" viewBox="0 0 245.63 196.5">
  <defs>
    <style>
      .cls-1 {
        fill: #fff;
        stroke-width: 0px;
      }
    </style>
  </defs>
  <g id="Layer_1-2" data-name="Layer 1">
    <path class="cls-1" d="m24.56,24.56v110.53h196.5V24.56H24.56Zm-24.56,0C0,11.01,11.01,0,24.56,0h196.5c13.55,0,24.56,11.01,24.56,24.56v110.53c0,13.55-11.01,24.56-24.56,24.56H24.56c-13.55,0-24.56-11.01-24.56-24.56V24.56Zm49.13,147.38h147.38c6.79,0,12.28,5.49,12.28,12.28s-5.49,12.28-12.28,12.28H49.13c-6.79,0-12.28-5.49-12.28-12.28s5.49-12.28,12.28-12.28Z"/>
  </g>
</svg>