<?xml version="1.0" encoding="UTF-8"?>
<svg id="Layer_2" data-name="Layer 2" xmlns="http://www.w3.org/2000/svg" viewBox="0 0 195 156">
  <defs>
    <style>
      .cls-1 {
        fill: #fff;
        stroke-width: 0px;
      }
    </style>
  </defs>
  <g id="Layer_1-2" data-name="Layer 1">
    <path class="cls-1" d="m43.88,0c13.46,0,24.38,10.91,24.38,24.38s-10.91,24.38-24.38,24.38-24.38-10.91-24.38-24.38S30.41,0,43.88,0Zm112.13,0c13.46,0,24.38,10.91,24.38,24.38s-10.91,24.38-24.38,24.38-24.38-10.91-24.38-24.38S142.54,0,156,0ZM0,91.01c0-17.95,14.56-32.51,32.51-32.51h13.01c4.84,0,9.45,1.07,13.59,2.96-.4,2.19-.58,4.48-.58,6.79,0,11.64,5.12,22.09,13.19,29.25H6.49c-3.56,0-6.49-2.93-6.49-6.49Zm123.49,6.49h-.21c8.1-7.16,13.19-17.61,13.19-29.25,0-2.32-.21-4.57-.58-6.79,4.14-1.92,8.74-2.96,13.59-2.96h13.01c17.95,0,32.51,14.56,32.51,32.51,0,3.6-2.92,6.49-6.49,6.49h-65.02Zm-55.24-29.25c0-16.15,13.1-29.25,29.25-29.25s29.25,13.1,29.25,29.25-13.1,29.25-29.25,29.25-29.25-13.1-29.25-29.25Zm-29.25,79.61c0-22.42,18.19-40.61,40.61-40.61h35.77c22.42,0,40.61,18.19,40.61,40.61,0,4.48-3.63,8.14-8.14,8.14H47.14c-4.48,0-8.14-3.63-8.14-8.14Z"/>
  </g>
</svg>