<?xml version="1.0" encoding="UTF-8"?>
<svg id="Layer_2" data-name="Layer 2" xmlns="http://www.w3.org/2000/svg" viewBox="0 0 289.73 331.12">
  <defs>
    <style>
      .cls-1 {
        fill: #fff;
        stroke-width: 0px;
      }
    </style>
  </defs>
  <g id="Layer_1-2" data-name="Layer 1">
    <path class="cls-1" d="m144.87,165.56c45.72,0,82.78-37.06,82.78-82.78S190.59,0,144.87,0,62.09,37.06,62.09,82.78s37.06,82.78,82.78,82.78Zm-62.09,35.7C34.92,215.3,0,259.53,0,311.92c0,10.61,8.6,19.21,19.21,19.21h251.32c10.61,0,19.21-8.6,19.21-19.21,0-52.39-34.92-96.62-82.78-110.66v32.85c17.85,4.59,31.04,20.82,31.04,40.1v25.87c0,5.69-4.66,10.35-10.35,10.35h-10.35c-5.69,0-10.35-4.66-10.35-10.35s4.66-10.35,10.35-10.35v-15.52c0-11.45-9.25-20.7-20.7-20.7s-20.7,9.25-20.7,20.7v15.52c5.69,0,10.35,4.66,10.35,10.35s-4.66,10.35-10.35,10.35h-10.35c-5.69,0-10.35-4.66-10.35-10.35v-25.87c0-19.27,13.19-35.51,31.04-40.1v-36.93c-3.88-.39-7.83-.58-11.84-.58h-59.11c-4.01,0-7.95.19-11.84.58v42.3c14.94,4.46,25.87,18.3,25.87,34.73,0,19.98-16.23,36.22-36.22,36.22s-36.22-16.23-36.22-36.22c0-16.43,10.93-30.27,25.87-34.73v-38.22Zm10.35,88.47c8.57,0,15.52-6.95,15.52-15.52s-6.95-15.52-15.52-15.52-15.52,6.95-15.52,15.52,6.95,15.52,15.52,15.52Z"/>
  </g>
</svg>