<?xml version="1.0" encoding="UTF-8"?>
<svg id="Layer_2" data-name="Layer 2" xmlns="http://www.w3.org/2000/svg" viewBox="0 0 208.27 208.59">
  <defs>
    <style>
      .cls-1 {
        fill: #fff;
        stroke-width: 0px;
      }
    </style>
  </defs>
  <g id="Layer_1-2" data-name="Layer 1">
    <path class="cls-1" d="m113.35,3.82c-5.09-5.09-13.34-5.09-18.43,0L3.66,95.08c-5,5.18-4.86,13.43.32,18.43,5.05,4.88,13.06,4.88,18.11,0l3.82-3.82v85.86c0,7.2,5.84,13.04,13.04,13.04h26.07c7.2,0,13.04-5.84,13.04-13.04v-26.07c0-7.2,5.84-13.04,13.04-13.04h26.07c7.2,0,13.04,5.84,13.04,13.04v26.07c0,7.2,5.84,13.04,13.04,13.04h26.07c7.2,0,13.04-5.84,13.04-13.04v-85.86l3.82,3.82c5.18,5,13.43,4.86,18.43-.32,4.88-5.05,4.88-13.06,0-18.11,0,0-91.26-91.26-91.26-91.26Z"/>
  </g>
</svg>