<?xml version="1.0" encoding="UTF-8"?>
<svg id="Layer_2" data-name="Layer 2" xmlns="http://www.w3.org/2000/svg" viewBox="0 0 209.32 225.42">
  <defs>
    <style>
      .cls-1 {
        fill: #fff;
        stroke-width: 0px;
      }
    </style>
  </defs>
  <g id="Layer_1-2" data-name="Layer 1">
    <path class="cls-1" d="m193.22,52.33h-42.42c6.24-5.53,10.21-13.38,10.21-22.14,0-16.66-14.24-30.19-31.75-30.19-10.37,0-19.07,4.88-24.61,13.79-5.53-8.91-14.24-13.79-24.61-13.79-17.51,0-31.75,13.54-31.75,30.19,0,8.76,3.92,16.6,10.21,22.14H16.1c-8.91,0-16.1,7.2-16.1,16.1v10.06c0,1.11.91,2.01,2.01,2.01h205.29c1.11,0,2.01-.91,2.01-2.01v-10.06c0-8.91-7.2-16.1-16.1-16.1Zm-63.95-38.24c9.36,0,16.96,7.2,16.96,16.1s-7.6,16.1-16.96,16.1h-16.96c0-24.15,7.6-32.2,16.96-32.2Zm-49.21,0c9.36,0,16.96,8.05,16.96,32.2h-16.96c-9.36,0-16.96-7.2-16.96-16.1s7.6-16.1,16.96-16.1ZM8.05,97.62v111.7c0,8.86,7.25,16.1,16.1,16.1h73.46V93.59H12.08c-2.21,0-4.03,1.81-4.03,4.03Zm189.19-4.03h-85.54v131.83h73.46c8.86,0,16.1-7.25,16.1-16.1v-111.7c0-2.21-1.81-4.03-4.03-4.03Z"/>
  </g>
</svg>