<?xml version="1.0" encoding="UTF-8"?>
<svg id="Layer_2" data-name="Layer 2" xmlns="http://www.w3.org/2000/svg" viewBox="0 0 167.37 119.49">
  <defs>
    <style>
      .cls-1 {
        fill: #fff;
        stroke-width: 0px;
      }
    </style>
  </defs>
  <g id="Layer_1-2" data-name="Layer 1">
    <path class="cls-1" d="m38.53,40.53c-4,0-7.21,3.25-7.21,7.25s3.25,7.25,7.21,7.25,7.21-3.25,7.21-7.25-3.21-7.25-7.21-7.25Z"/>
    <path class="cls-1" d="m162.24,57.08c-7.92-33.06-16.29-50.61-33.06-55.58-3.66-1.08-6.76-1.49-9.6-1.49-10.31,0-17.52,5.49-35.9,5.49S58.1,0,47.79,0c-2.88,0-5.98.41-9.6,1.49C21.42,6.46,13.05,24.06,5.14,57.08c-7.92,33.06-6.46,56.93,2.88,61.37,1.53.71,3.06,1.05,4.67,1.05,8.11,0,16.85-8.89,25.29-19.42,9.6-11.99,11.99-12.33,41.2-12.33h9.08c29.17,0,31.6.3,41.2,12.33,8.4,10.53,17.18,19.42,25.29,19.42,1.57,0,3.14-.34,4.67-1.05,9.3-4.48,10.72-28.35,2.84-61.37Zm-123.68,5.49c-8.07,0-14.64-6.65-14.64-14.79s6.57-14.79,14.64-14.79,14.64,6.65,14.64,14.79c.04,8.18-6.54,14.79-14.64,14.79Zm64.58-7.28c-4.15,0-7.51-3.36-7.51-7.51s3.36-7.51,7.51-7.51,7.51,3.36,7.51,7.51-3.36,7.51-7.51,7.51Zm16.4,16.4c-4.15,0-7.51-3.36-7.51-7.47s3.36-7.51,7.51-7.51,7.51,3.32,7.51,7.51-3.36,7.47-7.51,7.47Zm0-32.8c-4.15,0-7.51-3.36-7.51-7.51s3.36-7.51,7.51-7.51,7.51,3.36,7.51,7.51-3.36,7.51-7.51,7.51Zm16.4,16.4c-4.15,0-7.51-3.36-7.51-7.51s3.36-7.51,7.51-7.51,7.51,3.36,7.51,7.51-3.36,7.51-7.51,7.51Z"/>
  </g>
</svg>