<?xml version="1.0" encoding="UTF-8"?>
<svg id="Layer_2" data-name="Layer 2" xmlns="http://www.w3.org/2000/svg" viewBox="0 0 125.02 107.16">
  <defs>
    <style>
      .cls-1 {
        fill: #fff;
        stroke-width: 0px;
      }
    </style>
  </defs>
  <g id="Layer_1-2" data-name="Layer 1">
    <path class="cls-1" d="m83.34,18.75c5.21,0,9.38-4.17,9.38-9.38S88.55,0,83.34,0s-9.38,4.17-9.38,9.38,4.17,9.38,9.38,9.38Zm15.63,36.31c-14.32,0-26.04,11.72-26.04,26.04s11.72,26.04,26.04,26.04,26.05-11.72,26.05-26.04-11.72-26.04-26.05-26.04Zm0,44.28c-10.16,0-18.23-8.07-18.23-18.23s8.07-18.23,18.23-18.23,18.23,8.07,18.23,18.23-8.07,18.23-18.23,18.23Zm-22.62-54.69h21.88v-8.93h-16.42l-9.66-16.78c-1.56-2.6-4.43-4.43-7.55-4.43-2.34,0-4.69,1.04-6.25,2.6l-20.02,19.27c-1.56,1.56-2.6,3.91-2.6,6.25,0,3.39,2.57,5.99,5.17,7.55l17.15,10.68v23.96h8.93v-31.25l-10.98-8.93,11.98-12.43,8.37,12.43Zm-50.3,10.42c-14.32,0-26.04,11.72-26.04,26.04s11.72,26.04,26.04,26.04,26.04-11.72,26.04-26.04-11.72-26.04-26.04-26.04Zm0,44.28c-10.16,0-18.23-8.07-18.23-18.23s8.07-18.23,18.23-18.23,18.23,8.07,18.23,18.23-8.07,18.23-18.23,18.23Z"/>
  </g>
</svg>