<?xml version="1.0" encoding="UTF-8"?>
<svg id="Layer_2" data-name="Layer 2" xmlns="http://www.w3.org/2000/svg" viewBox="0 0 216.56 205.78">
  <defs>
    <style>
      .cls-1 {
        fill: #fff;
        stroke-width: 0px;
      }
    </style>
  </defs>
  <g id="Layer_1-2" data-name="Layer 1">
    <g>
      <circle class="cls-1" cx="27.07" cy="70.38" r="27.07"/>
      <circle class="cls-1" cx="75.8" cy="27.07" r="27.07"/>
      <circle class="cls-1" cx="140.77" cy="27.07" r="27.07"/>
      <circle class="cls-1" cx="189.49" cy="70.38" r="27.07"/>
      <path class="cls-1" d="m166.1,128.42c-9.42-11.04-17.33-20.47-26.85-31.51-4.98-5.85-11.37-11.69-18.95-14.29-1.19-.43-2.38-.76-3.57-.97-2.71-.43-5.63-.43-8.45-.43s-5.74,0-8.55.54c-1.19.22-2.38.54-3.57.97-7.58,2.6-13.86,8.45-18.95,14.29-9.42,11.04-17.32,20.47-26.85,31.51-14.18,14.18-31.62,29.89-28.37,51.87,3.14,11.04,11.04,21.98,25.23,25.12,7.9,1.62,33.13-4.76,59.99-4.76h1.95c26.85,0,52.08,6.28,59.99,4.76,14.18-3.14,22.09-14.18,25.23-25.12,3.36-22.09-14.08-37.79-28.26-51.98Z"/>
    </g>
  </g>
</svg>